 http://www.shotpix.com/images/88084815001111998670.jpg

Release Title: Linkin Park Live At Telekom Street Gigs, Berlin, Germany 


Program in order:

00:00 . Interview 
06:37 . Tinfoil 
07:52 . Faint 
11:45 . With You 
15:24 . Somewhere I Belong
20:00 . New Divide 
24:45 . Lies Greed Misery 
27:35 . What I've Done 
30:57 . One Step Closer 
35:00 . Burn It Down 
38:53 . In The End 
42:30 . Numb 
45:39 . Bleed It Out (w/ Beastie Boys' 'Sabotage' bridge)


             Details:


General
Format                         : Matroska
Format version                 : Version 2
File size                      : 602 MiB
Duration                       : 50mn 36s
Overall bit rate               : 1 663 Kbps
Movie name                     : Linkin Park- Live At Telekom Street Gigs 2012 HDTVRip 720p x264 [VX] [P2PDL]


Video
ID                             : 1
Format                         : AVC
Format/Info                    : Advanced Video Codec
Codec ID                       : V_MPEG4/ISO/AVC
Duration                       : 50mn 36s
Bit rate                       : 1 278 Kbps
Width                          : 1 280 pixels
Height                         : 720 pixels
Display aspect ratio           : 16:9
Frame rate mode                : Constant
Frame rate                     : 25.000 fps
Color space                    : YUV
Chroma subsampling             : 4:2:0
Stream size                    : 451 MiB (75%)
Writing library                : x264 core 125 r2208 d9d2288
Default                        : Yes
Forced                         : No

Audio
ID                             : 2
Format                         : AC-3
Format/Info                    : Audio Coding 3
Codec ID                       : A_AC3
Duration                       : 50mn 36s
Bit rate mode                  : Constant
Bit rate                       : 384 Kbps
Channel(s)                     : 2 channels
Channel positions              : Front: L R
Sampling rate                  : 48.0 KHz
Stream size                    : 139 MiB (23%)
Language                       : English
Default                        : Yes
Forced                         : No

Screens: 
http://www.shotpix.com/images/06705478754850091772.png 
http://www.shotpix.com/images/86194422567583702882.png 
http://www.shotpix.com/images/37041505494582553536.png 
http://www.shotpix.com/images/52420304955419104545.png 
http://www.shotpix.com/images/28232779107712285417.png

------------------------------------------------------------------------


Notes:

* Best played on VLC Media Player.
* Install shark007 codecs in case of any kind of problem in playback (For non-VLC Media Player users).
* Alternatively, install Core AVC codecs, the fastest decoder that there is coupled with Community Center Codec Pack and play on Windows Media Player Classic.
* Read NFO
* Help in seeding this torrent as much as you can. 




Greets to: srkfan, VYTO, MgB, staff members at ExtraTorrent, TPB,KAT, 1337x, PublicHD, Ahashare,
SilverTorrent, TorrentMafia, P2PDL, and all others


Encoder Notes: Looking For Early Access To Anything You Can Provide DVDScr, R5, DVDRips, BluRay, Direct Audio, Early Music
Releases, Seedboxes, Links, Dedicated Servers anything u can provide, Advance / Promo CDs/DVDs. If You Got anything to
offer contact me at "contact@tinym.eu"


Facebook Fan Page: http: // www . facebook . com / p2pdl

                                 Enjoy!		